<?xml version="1.0" encoding="UTF-8"?>
<svg version="1.1" xmlns="http://www.w3.org/2000/svg" width="1024" height="1024">
<path d="M0 0 C337.92 0 675.84 0 1024 0 C1024 337.92 1024 675.84 1024 1024 C686.08 1024 348.16 1024 0 1024 C0 686.08 0 348.16 0 0 Z " fill="#FDFDFD" transform="translate(0,0)"/>
<path d="M0 0 C0 104.28 0 208.56 0 316 C-62 316 -62 316 -86 302 C-90.69950734 299.35445659 -95.39905021 296.72122993 -100.125 294.125 C-102.41827986 292.85733349 -104.71125289 291.58911173 -107.00390625 290.3203125 C-108.05465332 289.73926758 -109.10540039 289.15822266 -110.18798828 288.55957031 C-116.73360323 284.92930566 -123.21616441 281.19100269 -129.69335938 277.44042969 C-141.69346203 270.49239337 -153.70430365 263.57089175 -165.8125 256.8125 C-173.59967876 252.46584173 -181.3776542 248.10485256 -189.125 243.6875 C-189.90464111 243.24446533 -190.68428223 242.80143066 -191.48754883 242.3449707 C-193.02771543 241.46471431 -194.5568921 240.56490877 -196.0736227 239.64485836 C-198.2942213 238.39670414 -200.40119275 237.37502583 -202.72721195 236.37332249 C-212.68913118 231.7645793 -212.68913118 231.7645793 -214.85865092 227.18913341 C-216.22085743 221.84791972 -215.87978615 216.36742031 -215.70288086 210.90405273 C-215.69864521 209.07023976 -215.7010337 207.23640138 -215.70951843 205.40260315 C-215.71381037 200.44236728 -215.62585662 195.48760906 -215.52090907 190.52864337 C-215.42691828 185.33994267 -215.41831154 180.15110581 -215.40052795 174.96168518 C-215.35396768 165.14347154 -215.23096997 155.32777344 -215.08028561 145.51066595 C-214.9124229 134.33085712 -214.83010215 123.1509259 -214.75485408 111.9701699 C-214.59820525 88.97839871 -214.32321557 65.99007454 -214 43 C-193.54 43 -173.08 43 -152 43 C-152 94.81 -152 146.62 -152 200 C-150.35 200.66 -148.7 201.32 -147 202 C-144.95451137 203.09541616 -142.92722446 204.22515619 -140.9140625 205.37890625 C-140.34070663 205.70655975 -139.76735077 206.03421326 -139.17662048 206.37179565 C-137.32408624 207.43192843 -135.47443632 208.4969734 -133.625 209.5625 C-132.33721055 210.30160488 -131.04936849 211.04061812 -129.76147461 211.77954102 C-122.54553855 215.92585389 -115.36892772 220.1275781 -108.25390625 224.4453125 C-101.87424652 228.29848854 -95.43047803 232.04499827 -89 235.8125 C-88.04046921 236.37503983 -88.04046921 236.37503983 -87.06155396 236.94894409 C-79.19777347 241.56327748 -79.19777347 241.56327748 -71.29882812 246.11698914 C-70.21021484 246.73838272 -69.12160156 247.35977631 -68 248 C-68.01300974 246.44451541 -68.01300974 246.44451541 -68.02628231 244.85760689 C-68.23400483 219.60991271 -68.35521223 194.36292834 -68.38603115 169.11438179 C-68.40293227 156.90411528 -68.44780438 144.69515487 -68.55883789 132.48535156 C-68.65555989 121.84147255 -68.69948177 111.19889928 -68.68036038 100.55457485 C-68.67207183 94.91928039 -68.68997474 89.28684781 -68.77114677 83.65207291 C-68.84678491 78.34347616 -68.85160007 73.03943791 -68.80301666 67.73056984 C-68.79754139 65.7866973 -68.81754484 63.84255307 -68.86545753 61.89926338 C-69.19716014 47.59866553 -69.19716014 47.59866553 -65.51793599 43.24710608 C-61.94303453 40.14606591 -58.0015954 37.93419375 -53.75681412 35.88171268 C-51.44303707 34.72047056 -49.39021103 33.28257895 -47.30859375 31.75 C-46.66229004 31.29246338 -46.01598633 30.83492676 -45.35009766 30.36352539 C-44.71894043 29.91356201 -44.0877832 29.46359863 -43.4375 29 C-42.37474854 28.24674438 -42.37474854 28.24674438 -41.29052734 27.47827148 C-38.01323516 25.15315065 -34.74324571 22.818097 -31.48046875 20.47265625 C-24.61664933 15.53944114 -17.70593948 10.67766225 -10.75 5.875 C-9.49727295 5.00307007 -9.49727295 5.00307007 -8.21923828 4.11352539 C-7.05110596 3.31096313 -7.05110596 3.31096313 -5.859375 2.4921875 C-4.81475098 1.77071533 -4.81475098 1.77071533 -3.74902344 1.03466797 C-2 0 -2 0 0 0 Z " fill="#010100" transform="translate(702,418)"/>
<path d="M0 0 C23.780625 -0.33 47.56125 -0.66 72.0625 -1 C79.5481665 -1.14566406 87.03383301 -1.29132813 94.74633789 -1.44140625 C103.94616699 -1.51367188 103.94616699 -1.51367188 108.26438904 -1.52709961 C111.25735942 -1.5419075 114.24570954 -1.6014021 117.2374115 -1.68920898 C143.73435377 -2.43306281 143.73435377 -2.43306281 151.19528198 3.4465332 C154.51014353 6.65874611 157.16872807 10.14176919 159.66259575 14.01551819 C161.73940815 17.0971567 164.2389171 19.63629263 166.8125 22.3125 C168.54277679 24.2073202 170.2719731 26.10312773 172 28 C172.87527344 28.95777344 173.75054688 29.91554688 174.65234375 30.90234375 C194 52.11203008 194 52.11203008 194 54 C150.44 54 106.88 54 62 54 C62 67.53 62 81.06 62 95 C65.98707031 94.86078125 69.97414063 94.7215625 74.08203125 94.578125 C77.28995549 94.50078622 80.49761142 94.43577735 83.70594025 94.3789978 C87.07828587 94.3159739 90.44693057 94.23203363 93.81713867 94.09472656 C117.39491438 93.20384561 117.39491438 93.20384561 123.07226562 97.48291016 C125.98458531 100.31940678 127.96226807 103.49896023 130 107 C131.04958403 108.27371318 132.1253628 109.52700254 133.2421875 110.7421875 C134.12126644 111.78521716 134.99890104 112.82946604 135.875 113.875 C140.06833512 118.82462437 144.38139599 123.6371812 148.8125 128.375 C149.36139893 128.96200684 149.91029785 129.54901367 150.47583008 130.15380859 C151.0045874 130.71922363 151.53334473 131.28463867 152.078125 131.8671875 C157.22961252 137.37815782 161.8006787 142.70101805 166 149 C131.68 149 97.36 149 62 149 C62 169.13 62 189.26 62 210 C67.91035156 209.9071875 73.82070313 209.814375 79.91015625 209.71875 C83.6608778 209.67785939 87.41132348 209.63934834 91.16210938 209.609375 C97.11215483 209.56160113 103.06121284 209.50516947 109.01049805 209.39648438 C113.80869269 209.30937947 118.60582831 209.26168887 123.40475273 209.24098206 C125.23288074 209.22623175 127.06095254 209.19742567 128.88862801 209.15415955 C143.2203314 208.82846864 143.2203314 208.82846864 147.61947632 211.72436523 C149.39669813 213.73681733 150.68276904 215.67058104 152 218 C152.91834996 219.06782433 153.86557166 220.11169719 154.84375 221.125 C162.59232795 229.51169614 170.08601653 238.08624722 177.50073242 246.76782227 C181.16089354 251.0456392 184.88377578 255.26041199 188.671875 259.42578125 C190 261 190 261 190 262 C127.3 262 64.6 262 0 262 C0 175.54 0 89.08 0 0 Z " fill="#010100" transform="translate(724,461)"/>
<path d="M0 0 C20.46 0 40.92 0 62 0 C62 86.46 62 172.92 62 262 C41.54 262 21.08 262 0 262 C0 223.72 0 185.44 0 146 C-10.72844761 151.96024867 -21.31755077 157.89158955 -31.75 164.3125 C-34.16404813 165.78991947 -36.57993395 167.26431829 -38.99609375 168.73828125 C-39.88617378 169.28175705 -39.88617378 169.28175705 -40.79423523 169.83621216 C-47.25134183 173.77346279 -53.76095486 177.62057832 -60.28222656 181.45043945 C-61.87627915 182.38693732 -63.45703681 183.34651172 -65.0222168 184.33050537 C-68 186 -68 186 -71.73895264 187.39707947 C-76.16381188 189.19917094 -80.01343585 191.17510484 -83 195 C-85.83072522 202.8238964 -84.88145812 211.76430967 -84.68359375 219.94140625 C-84.67805022 222.39476424 -84.67912881 224.84814535 -84.6865387 227.30149841 C-84.68827352 233.73935543 -84.60039328 240.17295412 -84.49353027 246.60980225 C-84.40031665 253.18562762 -84.39226789 259.76150407 -84.37695312 266.33789062 C-84.33443492 279.22666129 -84.20008992 292.11276129 -84 305 C-85.75208494 304.04733519 -87.50380453 303.09399842 -89.25537109 302.14038086 C-90.23089935 301.60956406 -91.20642761 301.07874725 -92.21151733 300.53184509 C-95.72087314 298.60399037 -99.18103129 296.60423041 -102.625 294.5625 C-103.66140625 293.95003418 -103.66140625 293.95003418 -104.71875 293.32519531 C-107.1478606 291.88685085 -109.57418456 290.44389496 -112 289 C-113.5173877 288.09773682 -113.5173877 288.09773682 -115.06542969 287.17724609 C-118.37896844 285.20485448 -121.68989301 283.22814481 -125 281.25 C-126.05010254 280.62424072 -127.10020508 279.99848145 -128.18212891 279.35375977 C-129.19452637 278.74717529 -130.20692383 278.14059082 -131.25 277.515625 C-132.14203125 276.98227539 -133.0340625 276.44892578 -133.953125 275.89941406 C-134.95859375 275.27260742 -135.9640625 274.64580078 -137 274 C-138.10403624 273.43648677 -138.10403624 273.43648677 -139.23037624 272.86158943 C-145.49820319 269.35374688 -145.49820319 269.35374688 -146.81826973 265.79247284 C-147.10900319 263.0811113 -147.11447411 260.4975328 -147.02172852 257.77197266 C-147.02369987 256.24910141 -147.02369987 256.24910141 -147.02571106 254.69546509 C-147.01945563 251.34988375 -146.9495351 248.00885217 -146.87890625 244.6640625 C-146.86211462 242.34095728 -146.84930607 240.01782014 -146.84031677 237.69467163 C-146.80599704 231.58806953 -146.717627 225.48340242 -146.61798096 219.37756348 C-146.52581743 213.14390236 -146.48478824 206.90992769 -146.43945312 200.67578125 C-146.34300781 188.4496719 -146.18945676 176.22499702 -146 164 C-145.35268417 163.6356485 -144.70536835 163.271297 -144.03843689 162.89590454 C-141.05489121 161.21566372 -138.07236341 159.53362383 -135.08984375 157.8515625 C-134.07192749 157.27865479 -133.05401123 156.70574707 -132.00524902 156.11547852 C-125.80641425 152.61755575 -119.65605315 149.05325611 -113.5625 145.375 C-112.67643066 144.84084473 -111.79036133 144.30668945 -110.87744141 143.75634766 C-110.14702637 143.31339355 -109.41661133 142.87043945 -108.6640625 142.4140625 C-101.61213996 138.15304322 -94.52363366 133.95376936 -87.4375 129.75 C-86.05012338 128.92660656 -84.6627536 128.10320159 -83.27539062 127.27978516 C-76.79256149 123.43280966 -70.30778922 119.5891326 -63.8203125 115.75 C-52.84440865 109.2540409 -41.87655415 102.74537497 -30.9375 96.1875 C-29.9997876 95.62579102 -29.0620752 95.06408203 -28.09594727 94.48535156 C-26.16974604 93.32879662 -24.26742064 92.13177458 -22.38769531 90.90112305 C-19.56909839 89.31936935 -17.34422103 88.43678356 -14.30761719 87.49926758 C-8.65395174 85.44668665 -4.23929591 83.23928336 -1 78 C2.06621286 66.08729067 1.07800136 53.27717159 0.69952393 41.08685303 C0.55317825 35.63874263 0.54218973 30.18882926 0.50811768 24.73908234 C0.44155884 16.4867855 0.20497855 8.25522116 0 0 Z " fill="#020101" transform="translate(314,461)"/>
<path d="M0 0 C0 100.98 0 201.96 0 306 C-21.78 306 -43.56 306 -66 306 C-66.35295574 272.93721038 -66.64828603 239.87625374 -66.81704527 206.81214608 C-66.83705578 202.90576659 -66.85776501 198.9993911 -66.87890625 195.09301758 C-66.88310322 194.31535254 -66.88730018 193.5376875 -66.89162433 192.73645685 C-66.96118374 180.15617119 -67.08729883 167.57705933 -67.23444474 154.99746927 C-67.38424896 142.08257772 -67.47297695 129.16829941 -67.50541592 116.25257474 C-67.52733612 108.28666038 -67.59646116 100.32406352 -67.72666347 92.35917107 C-67.82151841 86.24380939 -67.83124134 80.130958 -67.8097229 74.01496124 C-67.81411699 71.51184766 -67.84584849 69.00860607 -67.9072876 66.50624275 C-68.3377075 48.06776211 -68.3377075 48.06776211 -64.42040062 42.92709947 C-60.66503152 39.43337473 -56.48924939 37.06020377 -51.861619 34.90493071 C-49.41705901 33.7166331 -47.31678389 32.19412502 -45.16796875 30.5390625 C-44.50482666 30.0546167 -43.84168457 29.5701709 -43.15844727 29.07104492 C-42.18282837 28.35525269 -42.18282837 28.35525269 -41.1875 27.625 C-34.09962192 22.46330289 -26.90813926 17.47336939 -19.65136719 12.55249023 C-14.31109616 8.92426043 -9.08288863 5.1890811 -3.93359375 1.29296875 C-2 0 -2 0 0 0 Z " fill="#030302" transform="translate(466,418)"/>
<path d="M0 0 C-0.66 0.598125 -1.32 1.19625 -2 1.8125 C-6.24913643 6.08577925 -9.64463591 11.0143078 -13 16 C-13.53625 16.79535156 -14.0725 17.59070313 -14.625 18.41015625 C-18.78315193 25.48610229 -19.09861235 32.98928496 -18 41 C-16.19353552 44.64805465 -14.4591978 46.83800137 -11 49 C3.41101888 53.80367296 20.76050324 44.9227005 34.07348633 39.76757812 C49.70170875 33.85364929 65.44261217 32.92327268 81.1015625 39.25390625 C93.76441824 45.13652404 102.95394331 54.30941305 108.375 67.25 C113.07294039 80.21952775 111.37945562 91.86173267 106.0078125 104.296875 C100.62167126 115.06915747 91.3473339 123.77111886 82.875 132.125 C76.80098129 138.11417617 71.14889123 144.18014785 66 151 C65.19304687 152.02867187 64.38609375 153.05734375 63.5546875 154.1171875 C54.41436643 166.06075061 46.90500539 180.14106437 44 195 C40.31757797 191.98710925 39.25191541 188.41554797 38.76611328 183.75732422 C38.13143318 172.28565087 38.51720508 162.32805556 44 152 C44.32709961 151.38350586 44.65419922 150.76701172 44.99121094 150.13183594 C48.22762713 144.09587516 51.67216444 138.18632437 55.21875 132.328125 C60.91345948 122.8321479 67.13108669 111.4817732 65 100 C63.54839024 95.43313782 61.76560648 92.63529048 58.0625 89.5625 C47.91392022 84.38465318 36.06988482 87.04496852 25.625 89.9375 C23.555203 90.49021531 21.48490468 91.04105735 19.4140625 91.58984375 C18.46233154 91.84266113 17.51060059 92.09547852 16.5300293 92.35595703 C2.3489271 95.96589118 -12.55354629 94.4117212 -25.234375 86.921875 C-34.03623984 80.80532486 -41.2864274 73.75792222 -46 64 C-46.33644531 63.40445313 -46.67289062 62.80890625 -47.01953125 62.1953125 C-50.76306486 54.50312015 -50.35995818 43.7377405 -48.0390625 35.65234375 C-40.44049556 18.98381107 -25.05908859 8.50038393 -8.97265625 0.99609375 C-5.80239329 -0.06621512 -3.31997493 -0.19296427 0 0 Z " fill="#F04905" transform="translate(396,188)"/>
<path d="M0 0 C20.46 0 40.92 0 62 0 C62 35.97 62 71.94 62 109 C54.08 113.455 54.08 113.455 46 118 C41.1469555 120.9550598 41.1469555 120.9550598 36.31347656 123.94189453 C30.69816979 127.42973981 25.0319097 130.83301791 19.36669922 134.23901367 C18.0202183 135.04924594 16.67453528 135.86080543 15.32958984 136.67358398 C13.35424023 137.86727104 11.37662581 139.05711847 9.3984375 140.24609375 C8.79848969 140.60956406 8.19854187 140.97303436 7.58041382 141.34751892 C5.0639895 142.85473687 2.79488909 144.0683703 0 145 C0 97.15 0 49.3 0 0 Z " fill="#030302" transform="translate(168,460)"/>
<path d="M0 0 C-0.61875 0.53173828 -0.61875 0.53173828 -1.25 1.07421875 C-11.51252935 10.534988 -19.2893997 24.46913652 -20.23828125 38.53125 C-20.52559604 53.89503014 -15.90178014 64.88765626 -8.2421875 78.03125 C-3.00091477 87.20108957 -2.32760428 97.1704026 -4.83984375 107.4296875 C-9.28210152 118.94665209 -17.204326 126.81382932 -27 134 C-27 131 -27 131 -26.03125 127.76171875 C-23.3310207 117.91201868 -24.04397375 108.65212142 -29.09765625 99.76953125 C-31.67406586 96.01865976 -34.56747391 92.72459888 -37.69921875 89.4296875 C-49.54117456 76.92426048 -57.57856275 64.38862701 -57.34716797 46.82495117 C-56.91890919 34.86348488 -51.72614466 26.91228868 -43.4765625 18.39453125 C-34.18088369 9.99717434 -13.06161547 -4.22494168 0 0 Z " fill="#E92B06" transform="translate(430,307)"/>
<path d="M0 0 C1.6396875 0.99 1.6396875 0.99 3.3125 2 C8.38079157 4.27588889 13.10119348 4.38344995 18.5625 4.375 C19.76676636 4.37693359 19.76676636 4.37693359 20.99536133 4.37890625 C25.53207059 4.29712188 29.42117929 3.67493317 33.81811523 2.46289062 C44.90926973 0.10988302 59.55105933 0.11954434 69.7265625 5.4609375 C77.73836592 10.88473569 81.95682307 17.8704692 85 27 C86.33276971 40.96130888 81.50410647 52.63388293 73.03515625 63.52734375 C61.15858719 77.46566802 44.64098264 87.86241558 26.24609375 89.84375 C25.50488281 89.8953125 24.76367188 89.946875 24 90 C26.47966402 87.46547615 29.01286964 85.12578075 31.75 82.875 C40.04691776 75.62481769 45.89140845 66.6901062 51 57 C51.36351562 56.31292969 51.72703125 55.62585938 52.1015625 54.91796875 C54.73533024 49.07198896 55.01927699 42.26815221 54 36 C52.18922844 33.30429286 50.91643909 31.45821955 48 30 C46.32750832 29.90592918 44.65167445 29.86818983 42.9765625 29.859375 C17.73602358 29.47299936 17.73602358 29.47299936 7.5 20.3125 C2.80608261 15.13941188 0.23027059 9.33892349 -0.25 2.375 C-0.1675 1.59125 -0.085 0.8075 0 0 Z " fill="#FB8104" transform="translate(379,121)"/>
<path d="M0 0 C3.3 0 6.6 0 10 0 C10.42152344 1.07121094 10.84304687 2.14242187 11.27734375 3.24609375 C11.83059319 4.64328302 12.38398602 6.04041551 12.9375 7.4375 C13.21529297 8.14455078 13.49308594 8.85160156 13.77929688 9.58007812 C14.96222034 13.04673881 14.96222034 13.04673881 17 16 C19.31 10.72 21.62 5.44 24 0 C27.3 0 30.6 0 34 0 C35.0063655 2.43504509 36.00526413 4.87270864 37 7.3125 C37.42925781 8.34793945 37.42925781 8.34793945 37.8671875 9.40429688 C39.08910744 12.41545674 40 14.71886984 40 18 C40.66 18 41.32 18 42 18 C42.11214844 17.14148438 42.22429687 16.28296875 42.33984375 15.3984375 C43.02648164 11.8636744 44.13294687 8.92396876 45.5625 5.625 C46.01753906 4.56539062 46.47257812 3.50578125 46.94140625 2.4140625 C47.46541016 1.21910156 47.46541016 1.21910156 48 0 C51.3 0 54.6 0 58 0 C57.46890625 1.25554688 56.9378125 2.51109375 56.390625 3.8046875 C52.85486141 12.17539059 49.32712455 20.54355845 46 29 C42.7 29 39.4 29 36 29 C35.59007812 27.92878906 35.18015625 26.85757813 34.7578125 25.75390625 C34.21390592 24.35662899 33.66961517 22.95950123 33.125 21.5625 C32.85558594 20.85544922 32.58617187 20.14839844 32.30859375 19.41992188 C31.01963058 15.50053375 31.01963058 15.50053375 28 13 C27.57847656 14.07121094 27.15695313 15.14242187 26.72265625 16.24609375 C26.16940681 17.64328302 25.61601398 19.04041551 25.0625 20.4375 C24.78470703 21.14455078 24.50691406 21.85160156 24.22070312 22.58007812 C22.11328125 27.88671875 22.11328125 27.88671875 21 29 C19.48071962 29.07179964 17.95832518 29.08392007 16.4375 29.0625 C15.61121094 29.05347656 14.78492188 29.04445313 13.93359375 29.03515625 C12.97646484 29.01775391 12.97646484 29.01775391 12 29 C0 3.68587896 0 3.68587896 0 0 Z " fill="#CD0A0C" transform="translate(167,801)"/>
<path d="M0 0 C3.3 0 6.6 0 10 0 C12.31 5.28 14.62 10.56 17 16 C19.10850329 12.83724506 20.28830876 9.86528462 21.625 6.3125 C22.07101562 5.13300781 22.51703125 3.95351563 22.9765625 2.73828125 C23.31429688 1.83464844 23.65203125 0.93101562 24 0 C27.3 0 30.6 0 34 0 C36.31 5.61 38.62 11.22 41 17 C41.78375 15.123125 42.5675 13.24625 43.375 11.3125 C43.81585938 10.25675781 44.25671875 9.20101562 44.7109375 8.11328125 C45.82757462 5.41643343 46.92291801 2.71283736 48 0 C51.3 0 54.6 0 58 0 C56.15774851 5.90929851 53.78470517 11.59095565 51.4375 17.3125 C51.02564453 18.32634766 50.61378906 19.34019531 50.18945312 20.38476562 C49.79564453 21.34705078 49.40183594 22.30933594 48.99609375 23.30078125 C48.63700928 24.17903564 48.2779248 25.05729004 47.90795898 25.9621582 C47 28 47 28 46 29 C44.48071962 29.07179964 42.95832518 29.08392007 41.4375 29.0625 C40.61121094 29.05347656 39.78492188 29.04445313 38.93359375 29.03515625 C37.97646484 29.01775391 37.97646484 29.01775391 37 29 C36.01407845 26.94072044 35.03652506 24.87743312 34.0625 22.8125 C33.51722656 21.66394531 32.97195313 20.51539063 32.41015625 19.33203125 C31.20539869 16.48533264 30.45223729 14.03972155 30 11 C29.34 11 28.68 11 28 11 C27.88785156 11.68449219 27.77570313 12.36898437 27.66015625 13.07421875 C26.89228607 16.47738305 25.71586052 19.56743098 24.4375 22.8125 C23.98246094 23.97394531 23.52742188 25.13539063 23.05859375 26.33203125 C22.70925781 27.21246094 22.35992187 28.09289062 22 29 C18.7 29 15.4 29 12 29 C10.28628308 25.19351264 8.57741719 21.38489706 6.87304688 17.57421875 C6.29235113 16.27772132 5.71032542 14.98181873 5.12695312 13.68652344 C4.28947601 11.82641271 3.45677862 9.96422706 2.625 8.1015625 C2.12226563 6.98088379 1.61953125 5.86020508 1.1015625 4.70556641 C0 2 0 2 0 0 Z " fill="#CB0A0B" transform="translate(437,801)"/>
<path d="M0 0 C3.13970014 2.65130234 5.02653158 4.6601857 6.8125 8.375 C6.8125 11.015 6.8125 13.655 6.8125 16.375 C-2.0975 16.375 -11.0075 16.375 -20.1875 16.375 C-19.8575 17.695 -19.5275 19.015 -19.1875 20.375 C-16.12051363 21.39732879 -13.90085122 21.5409049 -10.6875 21.5625 C-9.7284375 21.57667969 -8.769375 21.59085938 -7.78125 21.60546875 C-4.95003861 21.56255111 -4.95003861 21.56255111 -2.1875 19.375 C0.375 19.5 0.375 19.5 2.8125 20.375 C4.125 22.4375 4.125 22.4375 4.8125 24.375 C1.53303851 28.1722712 -1.78886089 29.25678352 -6.74609375 29.67578125 C-8.02613281 29.67964844 -9.30617188 29.68351563 -10.625 29.6875 C-11.90246094 29.70425781 -13.17992187 29.72101562 -14.49609375 29.73828125 C-19.10705895 29.28450372 -22.39092471 28.0136815 -25.83203125 24.875 C-30.05294266 19.45416394 -30.9943674 15.10657943 -30.1875 8.375 C-28.22935666 4.22373612 -25.71756361 1.20939292 -21.57421875 -0.9296875 C-15.01148412 -2.84158073 -6.20491517 -3.20340523 0 0 Z " fill="#CD0E0F" transform="translate(565.1875,801.625)"/>
<path d="M0 0 C3.61289387 2.20144262 5.79583735 4.86511221 7.6796875 8.6328125 C7.6796875 11.2728125 7.6796875 13.9128125 7.6796875 16.6328125 C-1.2303125 16.6328125 -10.1403125 16.6328125 -19.3203125 16.6328125 C-18.9903125 17.9528125 -18.6603125 19.2728125 -18.3203125 20.6328125 C-15.40944581 21.6031014 -13.41807565 21.79749097 -10.3828125 21.8203125 C-9.10083984 21.84158203 -9.10083984 21.84158203 -7.79296875 21.86328125 C-5.1635327 21.61819953 -3.62865218 20.85055949 -1.3203125 19.6328125 C2.16852314 19.97318671 3.70787783 20.65160605 6.6796875 22.6328125 C6.6796875 23.2928125 6.6796875 23.9528125 6.6796875 24.6328125 C-0.65067448 30.06271026 -7.37914273 30.60117024 -16.3203125 29.6328125 C-22.03682687 28.43656078 -25.04973472 25.25009877 -28.3203125 20.6328125 C-29.77352069 16.27318794 -30.13728626 12.07389073 -28.671875 7.6953125 C-26.82013432 4.02348482 -24.46097094 1.18038371 -20.7109375 -0.7109375 C-14.11671344 -2.52111665 -6.32864291 -2.60591179 0 0 Z " fill="#CC0C0E" transform="translate(368.3203125,801.3671875)"/>
<path d="M0 0 C3.55607004 2.18248076 5.60709462 4.54453834 7.375 8.375 C7.375 11.015 7.375 13.655 7.375 16.375 C-1.535 16.375 -10.445 16.375 -19.625 16.375 C-18.125 20.375 -18.125 20.375 -15.625 21.375 C-14.00334248 21.49648305 -12.37615673 21.55043652 -10.75 21.5625 C-9.88632812 21.57667969 -9.02265625 21.59085938 -8.1328125 21.60546875 C-5.48564329 21.36219307 -3.93880343 20.61935649 -1.625 19.375 C1.43365675 19.74574627 2.72668306 20.60945537 5.375 22.375 C4.875 24.1875 4.875 24.1875 3.375 26.375 C-3.31091186 29.90717985 -10.16605193 30.36207677 -17.625 29.375 C-23.18901904 27.31815884 -27.1263132 23.7888214 -29.625 18.375 C-30.49835082 12.79358558 -30.00822215 8.02693046 -26.625 3.375 C-19.75269679 -3.44319059 -8.60864557 -3.82069101 0 0 Z " fill="#CC0E0F" transform="translate(524.625,801.625)"/>
<path d="M0 0 C1.99852662 1.20134067 3.68974693 2.45523575 5.41796875 4.015625 C6.07796875 4.593125 6.73796875 5.170625 7.41796875 5.765625 C8.41796875 8.015625 8.41796875 8.015625 8.41796875 17.015625 C-0.16203125 17.345625 -8.74203125 17.675625 -17.58203125 18.015625 C-14.24827547 22.06961622 -14.24827547 22.06961622 -11.46875 22.4765625 C-10.74300781 22.44820312 -10.01726562 22.41984375 -9.26953125 22.390625 C-8.48449219 22.36097656 -7.69945312 22.33132813 -6.890625 22.30078125 C-4.30098859 22.05229816 -4.30098859 22.05229816 -0.83203125 20.828125 C2.41796875 20.015625 2.41796875 20.015625 5.35546875 21.390625 C6.03609375 21.926875 6.71671875 22.463125 7.41796875 23.015625 C6.41796875 26.015625 6.41796875 26.015625 4.84375 27.18359375 C-2.1288047 30.54743252 -8.93684361 31.06796259 -16.58203125 30.015625 C-21.34052915 28.18598979 -24.98888675 25.44462401 -27.58203125 21.015625 C-28.44765 14.96350722 -28.91461083 9.01449438 -25.45703125 3.828125 C-17.54844413 -1.1577234 -9.15300966 -3.48949839 0 0 Z " fill="#CA0C0D" transform="translate(295.58203125,800.984375)"/>
<path d="M0 0 C1.99417214 1.20465789 3.68918308 2.45806146 5.4140625 4.01953125 C6.0534375 4.59703125 6.6928125 5.17453125 7.3515625 5.76953125 C8.4140625 8.01953125 8.4140625 8.01953125 9.4140625 17.01953125 C-3.9509375 17.51453125 -3.9509375 17.51453125 -17.5859375 18.01953125 C-14.25218172 22.07352247 -14.25218172 22.07352247 -11.47265625 22.48046875 C-10.74691406 22.45210937 -10.02117188 22.42375 -9.2734375 22.39453125 C-8.48839844 22.36488281 -7.70335937 22.33523438 -6.89453125 22.3046875 C-4.30489484 22.05620441 -4.30489484 22.05620441 -0.8359375 20.83203125 C2.4140625 20.01953125 2.4140625 20.01953125 5.3515625 21.39453125 C6.0321875 21.93078125 6.7128125 22.46703125 7.4140625 23.01953125 C6.4140625 26.01953125 6.4140625 26.01953125 3.6015625 27.64453125 C-3.55202111 30.73039085 -11.55005358 31.31381165 -19.0234375 28.83203125 C-23.76295047 26.42070009 -25.91266721 24.03934211 -27.5859375 19.01953125 C-28.15985903 14.45721835 -28.61758786 9.97551263 -26.421875 5.8125 C-20.05976763 -1.93622051 -9.31275352 -3.53096848 0 0 Z " fill="#CA0C0D" transform="translate(843.5859375,800.98046875)"/>
<path d="M0 0 C1.77697266 -0.02513672 1.77697266 -0.02513672 3.58984375 -0.05078125 C8.86187697 0.50073629 12.06250266 2.39945895 15.9375 5.9375 C18.0625 9.3125 18.0625 9.3125 18.0625 18.3125 C9.1525 18.3125 0.2425 18.3125 -8.9375 18.3125 C-5.69622956 23.4533671 -5.69622956 23.4533671 -2.24609375 23.87109375 C-0.82490234 23.81115234 -0.82490234 23.81115234 0.625 23.75 C1.57503906 23.72808594 2.52507813 23.70617187 3.50390625 23.68359375 C6.29867704 23.4652625 6.29867704 23.4652625 9.0625 21.3125 C12.52668389 21.65891839 14.11179881 22.34536587 17.0625 24.3125 C16.0625 27.3125 16.0625 27.3125 12.8125 29.5 C5.96860418 32.70038294 -2.3843886 32.43923623 -9.5 30.125 C-13.72309187 27.89827883 -15.82518803 25.53712393 -17.9375 21.3125 C-18.51928451 16.45938621 -19.04869633 11.48641766 -16.7734375 7.03515625 C-12.0560964 1.3138682 -7.34805805 0.02393504 0 0 Z " fill="#CE0D0E" transform="translate(662.9375,799.6875)"/>
<path d="M0 0 C3.3 0 6.6 0 10 0 C10.33 4.62 10.66 9.24 11 14 C12.65 13.01 14.3 12.02 16 11 C21.54764 10.22930158 27.87776357 9.70982451 32.75 12.875 C35.2493283 15.23547673 35.95466313 16.0294984 36.11352539 19.43017578 C36.10828857 20.4251709 36.10305176 21.42016602 36.09765625 22.4453125 C36.09443359 23.52167969 36.09121094 24.59804688 36.08789062 25.70703125 C36.07532227 27.39892578 36.07532227 27.39892578 36.0625 29.125 C36.05798828 30.26066406 36.05347656 31.39632812 36.04882812 32.56640625 C36.03701615 35.37765638 36.02054507 38.1888023 36 41 C33.03 41 30.06 41 27 41 C26.95101562 39.57945312 26.90203125 38.15890625 26.8515625 36.6953125 C26.77654064 34.83852144 26.70099256 32.98175159 26.625 31.125 C26.5940625 30.18785156 26.563125 29.25070312 26.53125 28.28515625 C26.49257812 27.38925781 26.45390625 26.49335937 26.4140625 25.5703125 C26.3826416 24.74289551 26.3512207 23.91547852 26.31884766 23.06298828 C26.17400863 20.78013915 26.17400863 20.78013915 24 19 C21.92983112 18.64329083 21.92983112 18.64329083 19.625 18.6875 C18.85414063 18.67074219 18.08328125 18.65398438 17.2890625 18.63671875 C14.17953306 19.13021062 13.05737711 19.55857916 11 22 C10.35570035 25.21955994 10.30272338 28.41146082 10.25 31.6875 C10.22035156 32.58017578 10.19070312 33.47285156 10.16015625 34.39257812 C10.08950424 36.59456583 10.04248238 38.79728876 10 41 C6.7 41 3.4 41 0 41 C0 27.47 0 13.94 0 0 Z " fill="#CD0B0D" transform="translate(227,789)"/>
<path d="M0 0 C0.69931641 -0.020625 1.39863281 -0.04125 2.11914062 -0.0625 C6.91403681 -0.09838323 10.1222014 0.72061631 14.1875 3.25 C16.0625 5.4375 16.0625 5.4375 17.1875 7.25 C12.77459677 9.33387097 12.77459677 9.33387097 10 8.9375 C8.1875 8.25 8.1875 8.25 6.1875 7.25 C4.14694995 7.17934383 2.10415743 7.16578024 0.0625 7.1875 C-1.03320312 7.19652344 -2.12890625 7.20554687 -3.2578125 7.21484375 C-4.10085938 7.22644531 -4.94390625 7.23804688 -5.8125 7.25 C-5.4825 8.24 -5.1525 9.23 -4.8125 10.25 C-3.18441406 10.41435547 -3.18441406 10.41435547 -1.5234375 10.58203125 C-0.07805848 10.74158608 1.36725051 10.90177611 2.8125 11.0625 C3.52535156 11.13275391 4.23820313 11.20300781 4.97265625 11.27539062 C9.58793271 11.80466545 13.16557581 12.75592389 17.1875 15.25 C19.53299674 18.76824511 19.76741403 20.10775694 19.1875 24.25 C15.97837771 28.40298178 13.17886776 29.91386736 8.1875 31.25 C0.11532406 32.03732722 -7.75842825 32.56466787 -14.625 27.63671875 C-15.8125 26.25 -15.8125 26.25 -15.8125 23.25 C-13.29453847 21.66461682 -12.13384414 21.2126344 -9.125 21.5625 C-6.8125 22.25 -6.8125 22.25 -5.8125 23.25 C-3.45936445 23.32271741 -1.10416332 23.33370868 1.25 23.3125 C2.54035156 23.30347656 3.83070313 23.29445313 5.16015625 23.28515625 C6.15917969 23.27355469 7.15820312 23.26195312 8.1875 23.25 C8.1875 22.26 8.1875 21.27 8.1875 20.25 C6.95773437 20.16363281 5.72796875 20.07726562 4.4609375 19.98828125 C2.82802469 19.8475129 1.19521705 19.70552095 -0.4375 19.5625 C-1.24574219 19.50900391 -2.05398438 19.45550781 -2.88671875 19.40039062 C-8.74983642 18.85221296 -11.76416652 17.59439603 -15.8125 13.25 C-16.5 9.75 -16.5 9.75 -15.8125 6.25 C-11.14319804 0.44492188 -7.07776455 0.05133465 0 0 Z " fill="#CC0F10" transform="translate(700.8125,799.75)"/>
<path d="M0 0 C1.29550781 -0.02578125 2.59101562 -0.0515625 3.92578125 -0.078125 C8.87528296 0.35360724 12.30141148 1.63289673 15.5625 5.4375 C15.93375 6.035625 16.305 6.63375 16.6875 7.25 C12.27061346 9.33575198 12.27061346 9.33575198 9.5625 8.9375 C8.634375 8.5971875 8.634375 8.5971875 7.6875 8.25 C4.53819107 7.20023036 2.29935544 7.14868405 -1 7.1875 C-1.99386719 7.19652344 -2.98773437 7.20554687 -4.01171875 7.21484375 C-4.77097656 7.22644531 -5.53023437 7.23804688 -6.3125 7.25 C-5.9825 8.24 -5.6525 9.23 -5.3125 10.25 C-3.68441406 10.41435547 -3.68441406 10.41435547 -2.0234375 10.58203125 C-0.57805848 10.74158608 0.86725051 10.90177611 2.3125 11.0625 C3.02535156 11.13275391 3.73820313 11.20300781 4.47265625 11.27539062 C10.02940742 11.91263273 14.6085931 13.1710931 18.6875 17.25 C19.26035397 21.5873229 19.23515252 23.52516578 16.5625 27.0625 C11.40641841 30.98560556 6.56490254 31.5430567 0.1875 31.5625 C-1.0809375 31.57925781 -2.349375 31.59601562 -3.65625 31.61328125 C-8.31750186 31.15014405 -11.59972844 29.67730963 -15.1875 26.6875 C-16.3125 25.25 -16.3125 25.25 -16.3125 23.25 C-13.79453847 21.66461682 -12.63384414 21.2126344 -9.625 21.5625 C-7.3125 22.25 -7.3125 22.25 -6.3125 23.25 C-3.95936445 23.32271741 -1.60416332 23.33370868 0.75 23.3125 C2.04035156 23.30347656 3.33070313 23.29445313 4.66015625 23.28515625 C5.65917969 23.27355469 6.65820312 23.26195312 7.6875 23.25 C8.0175 22.26 8.3475 21.27 8.6875 20.25 C7.45773437 20.15203125 6.22796875 20.0540625 4.9609375 19.953125 C3.32804288 19.80297377 1.69523452 19.65188228 0.0625 19.5 C-0.74574219 19.438125 -1.55398438 19.37625 -2.38671875 19.3125 C-8.20217301 18.74513861 -12.08027704 17.48222296 -16.3125 13.25 C-16.75 10 -16.75 10 -16.3125 6.25 C-11.87184118 0.7132292 -6.71767122 0.07973497 0 0 Z " fill="#CC0E10" transform="translate(872.3125,799.75)"/>
<path d="M0 0 C2.66218755 1.69411935 4.16252935 3.04196182 5.75 5.75 C1.33311346 7.83575198 1.33311346 7.83575198 -1.375 7.4375 C-2.303125 7.0971875 -2.303125 7.0971875 -3.25 6.75 C-6.39930893 5.70023036 -8.63814456 5.64868405 -11.9375 5.6875 C-12.93136719 5.69652344 -13.92523438 5.70554687 -14.94921875 5.71484375 C-15.70847656 5.72644531 -16.46773438 5.73804688 -17.25 5.75 C-16.92 6.74 -16.59 7.73 -16.25 8.75 C-14.62191406 8.91435547 -14.62191406 8.91435547 -12.9609375 9.08203125 C-11.51555848 9.24158608 -10.07024949 9.40177611 -8.625 9.5625 C-7.91214844 9.63275391 -7.19929688 9.70300781 -6.46484375 9.77539062 C-1.84956729 10.30466545 1.72807581 11.25592389 5.75 13.75 C8.09549674 17.26824511 8.32991403 18.60775694 7.75 22.75 C5.08642094 26.30143875 2.42384638 28.47265641 -1.96875 29.46484375 C-10.76430368 30.56428796 -18.80803979 31.00314839 -26.25 25.75 C-26.94921875 23.609375 -26.94921875 23.609375 -27.25 21.75 C-24.73203847 20.16461682 -23.57134414 19.7126344 -20.5625 20.0625 C-18.25 20.75 -18.25 20.75 -17.25 21.75 C-14.89686445 21.82271741 -12.54166332 21.83370868 -10.1875 21.8125 C-8.89714844 21.80347656 -7.60679687 21.79445313 -6.27734375 21.78515625 C-5.27832031 21.77355469 -4.27929688 21.76195312 -3.25 21.75 C-2.92 20.76 -2.59 19.77 -2.25 18.75 C-3.47976563 18.65203125 -4.70953125 18.5540625 -5.9765625 18.453125 C-7.60945712 18.30297377 -9.24226548 18.15188228 -10.875 18 C-11.68324219 17.938125 -12.49148438 17.87625 -13.32421875 17.8125 C-18.74592003 17.28355353 -22.02624035 16.24093069 -26.25 12.75 C-27.67041821 9.90916359 -27.56452272 7.89522722 -27.25 4.75 C-21.18900177 -3.04271201 -8.77709071 -3.45420989 0 0 Z " fill="#CC0E10" transform="translate(429.25,801.25)"/>
<path d="M0 0 C2.16796875 1.328125 2.16796875 1.328125 5.16796875 3.953125 C5.16796875 4.613125 5.16796875 5.273125 5.16796875 5.953125 C0.11489232 7.73656374 -1.99648964 8.02549997 -6.83203125 5.953125 C-9.83950127 5.76992886 -12.82258657 5.83510756 -15.83203125 5.953125 C-16.16203125 6.943125 -16.49203125 7.933125 -16.83203125 8.953125 C-15.67445313 9.05109375 -14.516875 9.1490625 -13.32421875 9.25 C-11.78507006 9.40016085 -10.24601193 9.55125191 -8.70703125 9.703125 C-7.56621094 9.7959375 -7.56621094 9.7959375 -6.40234375 9.890625 C-0.76123962 10.4741875 3.0616892 11.84684545 7.16796875 15.953125 C7.54747709 19.90001178 7.55042283 22.26470766 5.60546875 25.765625 C0.80138214 30.07698477 -5.16674932 30.24646259 -11.39453125 30.265625 C-12.65394531 30.28238281 -13.91335938 30.29914062 -15.2109375 30.31640625 C-19.851969 29.85080115 -23.13446304 28.36776518 -26.70703125 25.390625 C-27.83203125 23.953125 -27.83203125 23.953125 -27.83203125 21.953125 C-23.44054189 19.87936613 -23.44054189 19.87936613 -20.76953125 20.203125 C-18.83203125 20.953125 -18.83203125 20.953125 -17 21.98828125 C-14.55056563 23.07838988 -12.87329191 23.18966993 -10.20703125 23.140625 C-9.04300781 23.13095703 -9.04300781 23.13095703 -7.85546875 23.12109375 C-5.76330445 23.07363133 -5.76330445 23.07363133 -3.83203125 21.953125 C-3.83203125 20.963125 -3.83203125 19.973125 -3.83203125 18.953125 C-5.00121094 18.84355469 -6.17039062 18.73398437 -7.375 18.62109375 C-8.92324319 18.46157779 -10.47141683 18.30138586 -12.01953125 18.140625 C-12.78845703 18.07037109 -13.55738281 18.00011719 -14.34960938 17.92773438 C-18.85360115 17.44447345 -22.13963779 16.79949432 -25.83203125 13.953125 C-27.43571627 10.74575495 -27.45723852 7.42268184 -26.83203125 3.953125 C-20.57932744 -2.6375628 -8.31803979 -3.07480643 0 0 Z " fill="#CF0C0E" transform="translate(750.83203125,801.046875)"/>
<path d="M0 0 C3.24161379 1.25767529 5.40736242 2.81472484 7 6 C7.08471364 7.81341842 7.10721083 9.62994161 7.09765625 11.4453125 C7.09443359 12.52167969 7.09121094 13.59804688 7.08789062 14.70703125 C7.07532227 16.39892578 7.07532227 16.39892578 7.0625 18.125 C7.05798828 19.26066406 7.05347656 20.39632812 7.04882812 21.56640625 C7.03701615 24.37765638 7.02054507 27.1888023 7 30 C4.03 30 1.06 30 -2 30 C-2.04898438 28.57945312 -2.09796875 27.15890625 -2.1484375 25.6953125 C-2.22345936 23.83852144 -2.29900744 21.98175159 -2.375 20.125 C-2.4059375 19.18785156 -2.436875 18.25070312 -2.46875 17.28515625 C-2.50742187 16.38925781 -2.54609375 15.49335937 -2.5859375 14.5703125 C-2.6173584 13.74289551 -2.6487793 12.91547852 -2.68115234 12.06298828 C-2.82599137 9.78013915 -2.82599137 9.78013915 -5 8 C-7.07016888 7.64329083 -7.07016888 7.64329083 -9.375 7.6875 C-10.14585937 7.67074219 -10.91671875 7.65398438 -11.7109375 7.63671875 C-14.82046694 8.13021062 -15.94262289 8.55857916 -18 11 C-18.64429965 14.21955994 -18.69727662 17.41146082 -18.75 20.6875 C-18.77964844 21.58017578 -18.80929687 22.47285156 -18.83984375 23.39257812 C-18.91049576 25.59456583 -18.95751762 27.79728876 -19 30 C-22.3 30 -25.6 30 -29 30 C-29 20.43 -29 10.86 -29 1 C-25.7 1 -22.4 1 -19 1 C-18.67 1.66 -18.34 2.32 -18 3 C-17.30777344 2.51402344 -16.61554687 2.02804687 -15.90234375 1.52734375 C-10.86479092 -1.123643 -5.5511869 -0.64775456 0 0 Z " fill="#CA0B0D" transform="translate(633,800)"/>
<path d="M0 0 C0 3.3 0 6.6 0 10 C3.63 10 7.26 10 11 10 C11 11.98 11 13.96 11 16 C7.37 16 3.74 16 0 16 C0.14024219 18.47960136 0.2869185 20.95852402 0.4375 23.4375 C0.47681641 24.14455078 0.51613281 24.85160156 0.55664062 25.58007812 C0.47624438 29.08690419 0.47624438 29.08690419 2 32 C3.68608966 32.07205511 5.37500659 32.08386068 7.0625 32.0625 C7.98160156 32.05347656 8.90070312 32.04445313 9.84765625 32.03515625 C10.55792969 32.02355469 11.26820313 32.01195312 12 32 C12 34.31 12 36.62 12 39 C7.10754244 40.30465535 2.01925373 40.6181347 -3 40 C-5.93423195 38.20353146 -7.47205355 37.0558929 -9 34 C-9.08308638 32.62451844 -9.10736016 31.24514204 -9.09765625 29.8671875 C-9.09443359 29.06152344 -9.09121094 28.25585938 -9.08789062 27.42578125 C-9.07951172 26.58402344 -9.07113281 25.74226562 -9.0625 24.875 C-9.05798828 24.02550781 -9.05347656 23.17601562 -9.04882812 22.30078125 C-9.03702874 20.20049091 -9.01909306 18.1002367 -9 16 C-11.31 16 -13.62 16 -16 16 C-16 14.02 -16 12.04 -16 10 C-14.02 9.67 -12.04 9.34 -10 9 C-9.67 6.69 -9.34 4.38 -9 2 C-7.68786298 1.66524067 -6.37527913 1.33223233 -5.0625 1 C-3.96615234 0.7215625 -3.96615234 0.7215625 -2.84765625 0.4375 C-1 0 -1 0 0 0 Z " fill="#CC0708" transform="translate(589,791)"/>
<path d="M0 0 C-0.33 2.97 -0.66 5.94 -1 9 C-1.99 9 -2.98 9 -4 9 C-4.33 8.67 -4.66 8.34 -5 8 C-7.03381744 7.80034595 -7.03381744 7.80034595 -9.375 7.8125 C-10.56222656 7.79123047 -10.56222656 7.79123047 -11.7734375 7.76953125 C-14.28731333 7.85492491 -14.28731333 7.85492491 -17 10 C-17.50621513 12.02276681 -17.50621513 12.02276681 -17.51171875 14.3515625 C-17.54716797 15.20234375 -17.58261719 16.053125 -17.61914062 16.9296875 C-17.65297852 18.26386719 -17.65297852 18.26386719 -17.6875 19.625 C-17.72166016 20.5221875 -17.75582031 21.419375 -17.79101562 22.34375 C-17.87361213 24.56205613 -17.93847923 26.78100936 -18 29 C-21.3 29 -24.6 29 -28 29 C-28 19.43 -28 9.86 -28 0 C-24.7 0 -21.4 0 -18 0 C-17.67 0.66 -17.34 1.32 -17 2 C-16.360625 1.505 -15.72125 1.01 -15.0625 0.5 C-10.15485141 -1.90374625 -5.14394129 -1.7146471 0 0 Z " fill="#CE0E10" transform="translate(337,801)"/>
<path d="M0 0 C3.3 0 6.6 0 10 0 C10 13.53 10 27.06 10 41 C6.7 41 3.4 41 0 41 C0 27.47 0 13.94 0 0 Z " fill="#C91415" transform="translate(785,789)"/>
<path d="M0 0 C3.3 0 6.6 0 10 0 C10 9.9 10 19.8 10 30 C6.7 30 3.4 30 0 30 C0 20.1 0 10.2 0 0 Z " fill="#C71113" transform="translate(801,800)"/>
<path d="M0 0 C8.91 0 17.82 0 27 0 C27 0.33 27 0.66 27 1 C26.0925 1.103125 25.185 1.20625 24.25 1.3125 C20.92070026 2.01677494 19.56280941 2.87905428 17 5 C14.11079306 5.96306898 12.07752119 6.1955936 9.0625 6.25 C8.20785156 6.27578125 7.35320313 6.3015625 6.47265625 6.328125 C3.48308115 5.93140413 2.12897236 5.11415353 0 3 C0 2.01 0 1.02 0 0 Z " fill="#FBF4F4" transform="translate(505,818)"/>
<path d="M0 0 C8.91 0 17.82 0 27 0 C27 0.33 27 0.66 27 1 C26.0925 1.103125 25.185 1.20625 24.25 1.3125 C20.93905916 2.01289133 19.5187092 2.8411064 17 5 C13.07199914 6.96400043 8.28259843 6.47443853 4 6 C1.3125 4.125 1.3125 4.125 0 2 C0 1.34 0 0.68 0 0 Z " fill="#FBF3F4" transform="translate(654,818)"/>
<path d="M0 0 C8.91 0 17.82 0 27 0 C27 0.33 27 0.66 27 1 C26.0925 1.103125 25.185 1.20625 24.25 1.3125 C20.92070026 2.01677494 19.56280941 2.87905428 17 5 C12.67651662 6.44116113 8.51833798 6.55462414 4 6 C1.375 4.125 1.375 4.125 0 2 C0 1.34 0 0.68 0 0 Z " fill="#FBF4F4" transform="translate(349,818)"/>
<path d="M0 0 C8.91 0 17.82 0 27 0 C27 0.33 27 0.66 27 1 C26.0925 1.103125 25.185 1.20625 24.25 1.3125 C20.92070026 2.01677494 19.56280941 2.87905428 17 5 C12.94848901 6.35050366 9.23119285 6.68914349 5 6 C1.9375 3.5625 1.9375 3.5625 0 1 C0 0.67 0 0.34 0 0 Z " fill="#FBF3F4" transform="translate(277,818)"/>
<path d="M0 0 C8.91 0 17.82 0 27 0 C27 0.33 27 0.66 27 1 C26.0925 1.103125 25.185 1.20625 24.25 1.3125 C20.92070026 2.01677494 19.56280941 2.87905428 17 5 C12.94848901 6.35050366 9.23119285 6.68914349 5 6 C1.9375 3.5625 1.9375 3.5625 0 1 C0 0.67 0 0.34 0 0 Z " fill="#FCF4F4" transform="translate(825,818)"/>
<path d="M0 0 C8.25 0 16.5 0 25 0 C18.67401735 4.74448699 14.40481145 6.56752234 6.50390625 6.36328125 C4 6 4 6 1.3125 4.125 C0 2 0 2 0 0 Z " fill="#FBF1F1" transform="translate(545,818)"/>
<path d="M0 0 C3 1.875 3 1.875 5 4 C5 4.66 5 5.32 5 6 C-0.94 6 -6.88 6 -13 6 C-12 2 -12 2 -10.4375 0.75 C-6.92777984 -0.32991389 -3.60620073 -0.59984329 0 0 Z " fill="#FAEEEF" transform="translate(558,806)"/>
<path d="M0 0 C6.52050587 -0.2661431 12.05670859 0.02835429 18 3 C16.23640097 5.23546499 15.37811483 5.94479642 12.51171875 6.36328125 C7.30967884 6.26974526 2.85868514 6.10105303 -2 4 C-1.34 2.68 -0.68 1.36 0 0 Z " fill="#F8DDDE" transform="translate(735,806)"/>
<path d="M0 0 C1.625 1.25 1.625 1.25 2.625 5.25 C-3.315 5.25 -9.255 5.25 -15.375 5.25 C-13.375 1.25 -13.375 1.25 -11.6875 0 C-7.71588945 -1.28808991 -3.97585619 -1.25553353 0 0 Z " fill="#FAEBED" transform="translate(669.375,806.75)"/>
<path d="M0 0 C2.875 1.3125 2.875 1.3125 5 3 C5.33 3.99 5.66 4.98 6 6 C0.06 6 -5.88 6 -12 6 C-8.97646368 -0.04707264 -6.47425382 -0.55812533 0 0 Z " fill="#FBECEE" transform="translate(517,806)"/>
<path d="M0 0 C0.77085937 -0.01417969 1.54171875 -0.02835938 2.3359375 -0.04296875 C4.85812977 0.21097211 6.40396908 1.01247327 8.625 2.1875 C11.29209069 2.35500414 11.29209069 2.35500414 13.625 2.1875 C12.6875 4.1875 12.6875 4.1875 10.625 6.1875 C5.32708407 7.00175055 -0.13546099 6.07933643 -5.375 5.1875 C-5.705 3.8675 -6.035 2.5475 -6.375 1.1875 C-4.04904054 0.02452027 -2.58776769 0.02149309 0 0 Z " fill="#F8E2E3" transform="translate(418.375,805.8125)"/>
<path d="M0 0 C2.875 1.3125 2.875 1.3125 5 3 C5.33 3.99 5.66 4.98 6 6 C0.06 6 -5.88 6 -12 6 C-8.97646368 -0.04707264 -6.47425382 -0.55812533 0 0 Z " fill="#FBF0F1" transform="translate(361,806)"/>
<path d="M0 0 C2.875 1.3125 2.875 1.3125 5 3 C5.33 3.99 5.66 4.98 6 6 C0.06 6 -5.88 6 -12 6 C-8.97646368 -0.04707264 -6.47425382 -0.55812533 0 0 Z " fill="#F9EBED" transform="translate(289,806)"/>
<path d="M0 0 C2.5 1.875 2.5 1.875 4 4 C4 4.66 4 5.32 4 6 C-1.94 6 -7.88 6 -14 6 C-12 2 -12 2 -10.375 0.75 C-6.88364817 -0.35253216 -3.6200296 -0.62311985 0 0 Z " fill="#F9E8E9" transform="translate(839,806)"/>
<path d="M0 0 C3.3 0 6.6 0 10 0 C10 2.64 10 5.28 10 8 C6.7 8 3.4 8 0 8 C0 5.36 0 2.72 0 0 Z " fill="#C5090B" transform="translate(930,822)"/>
<path d="M0 0 C3.3 0 6.6 0 10 0 C10 2.64 10 5.28 10 8 C6.7 8 3.4 8 0 8 C0 5.36 0 2.72 0 0 Z " fill="#C4080B" transform="translate(913,822)"/>
<path d="M0 0 C3.3 0 6.6 0 10 0 C10 2.64 10 5.28 10 8 C6.7 8 3.4 8 0 8 C0 5.36 0 2.72 0 0 Z " fill="#CA070A" transform="translate(896,822)"/>
<path d="M0 0 C1.64627294 0.71226503 3.25404005 1.51236885 4.8515625 2.328125 C3.8615625 2.823125 3.8615625 2.823125 2.8515625 3.328125 C2.8515625 3.988125 2.8515625 4.648125 2.8515625 5.328125 C-2.0984375 4.998125 -7.0484375 4.668125 -12.1484375 4.328125 C-12.4784375 3.008125 -12.8084375 1.688125 -13.1484375 0.328125 C-9.20365798 -1.64426476 -4.14728113 -1.29696792 0 0 Z " fill="#F8E3E5" transform="translate(879.1484375,806.671875)"/>
<path d="M0 0 C3.625 1.5 3.625 1.5 6 3 C4.94921875 4.51953125 4.94921875 4.51953125 3 6 C-0.35546875 6.07421875 -0.35546875 6.07421875 -4.1875 5.6875 C-6.09595703 5.50767578 -6.09595703 5.50767578 -8.04296875 5.32421875 C-9.01878906 5.21722656 -9.99460937 5.11023438 -11 5 C-11.33 3.68 -11.66 2.36 -12 1 C-8.31714676 -0.84142662 -4.02829909 -0.36956872 0 0 Z " fill="#F8E5E6" transform="translate(707,806)"/>
<path d="M0 0 C3.3 0 6.6 0 10 0 C10 2.31 10 4.62 10 7 C6.7 7 3.4 7 0 7 C0 4.69 0 2.38 0 0 Z " fill="#C5090C" transform="translate(801,790)"/>
<path d="M0 0 C2 3.75 2 3.75 2 6 C2.66 6.33 3.32 6.66 4 7 C1.69 8.98 -0.62 10.96 -3 13 C-3 9.90124328 -2.41738748 7.75578485 -1.5 4.8125 C-1.2215625 3.91144531 -0.943125 3.01039063 -0.65625 2.08203125 C-0.4396875 1.39496094 -0.223125 0.70789063 0 0 Z " fill="#D81E20" transform="translate(406,428)"/>
<path d="M0 0 C0.33 0 0.66 0 1 0 C1 3.96 1 7.92 1 12 C0.34 10.68 -0.32 9.36 -1 8 C-1.99 8.495 -1.99 8.495 -3 9 C-2.67 7.68 -2.34 6.36 -2 5 C-4.97 4.67 -7.94 4.34 -11 4 C-11 3.67 -11 3.34 -11 3 C-7.37 3 -3.74 3 0 3 C0 2.01 0 1.02 0 0 Z " fill="#F4D6D7" transform="translate(226,797)"/>
<path d="M0 0 C0 3 0 3 -2.1875 5.48046875 C-3.115625 6.37378906 -4.04375 7.26710938 -5 8.1875 C-5.928125 9.08855469 -6.85625 9.98960937 -7.8125 10.91796875 C-8.534375 11.60503906 -9.25625 12.29210937 -10 13 C-10.66 12.67 -11.32 12.34 -12 12 C-10.75479583 10.55834372 -9.50362077 9.12184348 -8.25 7.6875 C-7.55390625 6.88699219 -6.8578125 6.08648437 -6.140625 5.26171875 C-4.20854665 3.22034399 -2.30056874 1.60107149 0 0 Z " fill="#E94E19" transform="translate(391,322)"/>
<path d="M0 0 C0.33 0 0.66 0 1 0 C1.12375 0.804375 1.2475 1.60875 1.375 2.4375 C1.58125 3.283125 1.7875 4.12875 2 5 C2.66 5.33 3.32 5.66 4 6 C4.33 4.35 4.66 2.7 5 1 C6.60080151 5.00200378 5.29279692 8.04556236 4 12 C1.95780294 10.30820672 1.08206694 9.36272334 0.48828125 6.73828125 C0.43027344 5.93777344 0.37226563 5.13726562 0.3125 4.3125 C0.24675781 3.50425781 0.18101562 2.69601562 0.11328125 1.86328125 C0.07589844 1.24839844 0.03851563 0.63351562 0 0 Z " fill="#E51F15" transform="translate(436,371)"/>
<path d="M0 0 C0.78890625 0.13921875 1.5778125 0.2784375 2.390625 0.421875 C3.18984375 0.55078125 3.9890625 0.6796875 4.8125 0.8125 C5.41578125 0.93109375 6.0190625 1.0496875 6.640625 1.171875 C6.640625 1.501875 6.640625 1.831875 6.640625 2.171875 C2.350625 2.831875 -1.939375 3.491875 -6.359375 4.171875 C-2.359375 0.171875 -2.359375 0.171875 0 0 Z " fill="#F37E2E" transform="translate(409.359375,206.828125)"/>
</svg>
